<mxfile host="app.diagrams.net" agent="Mozilla/5.0 (X11; Linux x86_64) AppleWebKit/537.36 (KHTML, like Gecko) Chrome/132.0.0.0 Safari/537.36" version="26.0.11">
  <diagram name="Page-1" id="uLonJZ27qmUHbQyjir5t">
    <mxGraphModel dx="1195" dy="755" grid="1" gridSize="10" guides="1" tooltips="1" connect="1" arrows="1" fold="1" page="1" pageScale="1" pageWidth="850" pageHeight="1100" math="0" shadow="0">
      <root>
        <mxCell id="0" />
        <mxCell id="1" parent="0" />
        <mxCell id="lNsFqk_tAbKVGRwWwcRh-1" value="" style="rounded=0;whiteSpace=wrap;html=1;" vertex="1" parent="1">
          <mxGeometry x="280" y="290" width="430" height="430" as="geometry" />
        </mxCell>
        <mxCell id="lNsFqk_tAbKVGRwWwcRh-6" value="&lt;font style=&quot;font-size: 18px;&quot;&gt;FIFO&lt;/font&gt;" style="text;html=1;align=center;verticalAlign=middle;whiteSpace=wrap;rounded=0;" vertex="1" parent="1">
          <mxGeometry x="580" y="250" width="60" height="30" as="geometry" />
        </mxCell>
        <mxCell id="lNsFqk_tAbKVGRwWwcRh-7" value="" style="endArrow=classic;html=1;rounded=0;entryX=0.008;entryY=0.456;entryDx=0;entryDy=0;entryPerimeter=0;" edge="1" parent="1">
          <mxGeometry width="50" height="50" relative="1" as="geometry">
            <mxPoint x="80" y="320" as="sourcePoint" />
            <mxPoint x="279.9999999999999" y="320.0799999999999" as="targetPoint" />
          </mxGeometry>
        </mxCell>
        <mxCell id="lNsFqk_tAbKVGRwWwcRh-8" value="RCLK" style="edgeLabel;html=1;align=center;verticalAlign=middle;resizable=0;points=[];" vertex="1" connectable="0" parent="lNsFqk_tAbKVGRwWwcRh-7">
          <mxGeometry x="0.2691" y="2" relative="1" as="geometry">
            <mxPoint x="-17" y="-8" as="offset" />
          </mxGeometry>
        </mxCell>
        <mxCell id="lNsFqk_tAbKVGRwWwcRh-9" value="" style="endArrow=classic;html=1;rounded=0;entryX=0.008;entryY=0.456;entryDx=0;entryDy=0;entryPerimeter=0;" edge="1" parent="1">
          <mxGeometry width="50" height="50" relative="1" as="geometry">
            <mxPoint x="79" y="360" as="sourcePoint" />
            <mxPoint x="279" y="360" as="targetPoint" />
          </mxGeometry>
        </mxCell>
        <mxCell id="lNsFqk_tAbKVGRwWwcRh-10" value="WCLK" style="edgeLabel;html=1;align=center;verticalAlign=middle;resizable=0;points=[];" vertex="1" connectable="0" parent="lNsFqk_tAbKVGRwWwcRh-9">
          <mxGeometry x="0.2691" y="2" relative="1" as="geometry">
            <mxPoint x="-16" y="-8" as="offset" />
          </mxGeometry>
        </mxCell>
        <mxCell id="lNsFqk_tAbKVGRwWwcRh-11" value="" style="endArrow=classic;html=1;rounded=0;entryX=0;entryY=0.442;entryDx=0;entryDy=0;entryPerimeter=0;" edge="1" parent="1" target="lNsFqk_tAbKVGRwWwcRh-1">
          <mxGeometry width="50" height="50" relative="1" as="geometry">
            <mxPoint x="80" y="480" as="sourcePoint" />
            <mxPoint x="170" y="430" as="targetPoint" />
          </mxGeometry>
        </mxCell>
        <mxCell id="lNsFqk_tAbKVGRwWwcRh-13" value="W_DI" style="edgeLabel;html=1;align=center;verticalAlign=middle;resizable=0;points=[];" vertex="1" connectable="0" parent="lNsFqk_tAbKVGRwWwcRh-11">
          <mxGeometry x="0.16" y="-4" relative="1" as="geometry">
            <mxPoint y="-14" as="offset" />
          </mxGeometry>
        </mxCell>
        <mxCell id="lNsFqk_tAbKVGRwWwcRh-14" value="" style="endArrow=classic;html=1;rounded=0;entryX=0;entryY=0.442;entryDx=0;entryDy=0;entryPerimeter=0;" edge="1" parent="1">
          <mxGeometry width="50" height="50" relative="1" as="geometry">
            <mxPoint x="710" y="400" as="sourcePoint" />
            <mxPoint x="910" y="400" as="targetPoint" />
          </mxGeometry>
        </mxCell>
        <mxCell id="lNsFqk_tAbKVGRwWwcRh-15" value="R_DO" style="edgeLabel;html=1;align=center;verticalAlign=middle;resizable=0;points=[];" vertex="1" connectable="0" parent="lNsFqk_tAbKVGRwWwcRh-14">
          <mxGeometry x="0.16" y="-4" relative="1" as="geometry">
            <mxPoint x="-16" y="-14" as="offset" />
          </mxGeometry>
        </mxCell>
        <mxCell id="lNsFqk_tAbKVGRwWwcRh-19" value="" style="endArrow=classic;html=1;rounded=0;entryX=0;entryY=0.442;entryDx=0;entryDy=0;entryPerimeter=0;" edge="1" parent="1">
          <mxGeometry width="50" height="50" relative="1" as="geometry">
            <mxPoint x="710" y="480" as="sourcePoint" />
            <mxPoint x="910" y="480" as="targetPoint" />
          </mxGeometry>
        </mxCell>
        <mxCell id="lNsFqk_tAbKVGRwWwcRh-20" value="readable_out" style="edgeLabel;html=1;align=center;verticalAlign=middle;resizable=0;points=[];" vertex="1" connectable="0" parent="lNsFqk_tAbKVGRwWwcRh-19">
          <mxGeometry x="0.16" y="-4" relative="1" as="geometry">
            <mxPoint x="-16" y="-14" as="offset" />
          </mxGeometry>
        </mxCell>
        <mxCell id="lNsFqk_tAbKVGRwWwcRh-21" value="" style="endArrow=classic;html=1;rounded=0;entryX=0;entryY=0.442;entryDx=0;entryDy=0;entryPerimeter=0;" edge="1" parent="1">
          <mxGeometry width="50" height="50" relative="1" as="geometry">
            <mxPoint x="710" y="520" as="sourcePoint" />
            <mxPoint x="910" y="520" as="targetPoint" />
          </mxGeometry>
        </mxCell>
        <mxCell id="lNsFqk_tAbKVGRwWwcRh-22" value="writable_out" style="edgeLabel;html=1;align=center;verticalAlign=middle;resizable=0;points=[];" vertex="1" connectable="0" parent="lNsFqk_tAbKVGRwWwcRh-21">
          <mxGeometry x="0.16" y="-4" relative="1" as="geometry">
            <mxPoint x="-16" y="-14" as="offset" />
          </mxGeometry>
        </mxCell>
        <mxCell id="lNsFqk_tAbKVGRwWwcRh-24" value="" style="endArrow=classic;html=1;rounded=0;entryX=0;entryY=0.442;entryDx=0;entryDy=0;entryPerimeter=0;" edge="1" parent="1">
          <mxGeometry width="50" height="50" relative="1" as="geometry">
            <mxPoint x="80" y="600" as="sourcePoint" />
            <mxPoint x="280" y="600" as="targetPoint" />
          </mxGeometry>
        </mxCell>
        <mxCell id="lNsFqk_tAbKVGRwWwcRh-25" value="read_en_in" style="edgeLabel;html=1;align=center;verticalAlign=middle;resizable=0;points=[];" vertex="1" connectable="0" parent="lNsFqk_tAbKVGRwWwcRh-24">
          <mxGeometry x="0.16" y="-4" relative="1" as="geometry">
            <mxPoint y="-14" as="offset" />
          </mxGeometry>
        </mxCell>
        <mxCell id="lNsFqk_tAbKVGRwWwcRh-26" value="" style="endArrow=classic;html=1;rounded=0;entryX=0;entryY=0.442;entryDx=0;entryDy=0;entryPerimeter=0;" edge="1" parent="1">
          <mxGeometry width="50" height="50" relative="1" as="geometry">
            <mxPoint x="80" y="640" as="sourcePoint" />
            <mxPoint x="280" y="640" as="targetPoint" />
          </mxGeometry>
        </mxCell>
        <mxCell id="lNsFqk_tAbKVGRwWwcRh-27" value="write_en_in" style="edgeLabel;html=1;align=center;verticalAlign=middle;resizable=0;points=[];" vertex="1" connectable="0" parent="lNsFqk_tAbKVGRwWwcRh-26">
          <mxGeometry x="0.16" y="-4" relative="1" as="geometry">
            <mxPoint y="-14" as="offset" />
          </mxGeometry>
        </mxCell>
        <mxCell id="lNsFqk_tAbKVGRwWwcRh-28" value="PARAMS: DATA_WIDTH&lt;div&gt;DATA_DEPTH&lt;/div&gt;" style="rounded=1;whiteSpace=wrap;html=1;" vertex="1" parent="1">
          <mxGeometry x="590" y="290" width="120" height="60" as="geometry" />
        </mxCell>
        <mxCell id="lNsFqk_tAbKVGRwWwcRh-29" value="" style="endArrow=classic;html=1;rounded=0;entryX=0.008;entryY=0.456;entryDx=0;entryDy=0;entryPerimeter=0;" edge="1" parent="1">
          <mxGeometry width="50" height="50" relative="1" as="geometry">
            <mxPoint x="80" y="680" as="sourcePoint" />
            <mxPoint x="279.9999999999999" y="680.0799999999999" as="targetPoint" />
          </mxGeometry>
        </mxCell>
        <mxCell id="lNsFqk_tAbKVGRwWwcRh-30" value="NRST" style="edgeLabel;html=1;align=center;verticalAlign=middle;resizable=0;points=[];" vertex="1" connectable="0" parent="lNsFqk_tAbKVGRwWwcRh-29">
          <mxGeometry x="0.2691" y="2" relative="1" as="geometry">
            <mxPoint x="-17" y="-8" as="offset" />
          </mxGeometry>
        </mxCell>
      </root>
    </mxGraphModel>
  </diagram>
</mxfile>
